<?xml version="1.0" standalone="no"?>
<!DOCTYPE svg PUBLIC "-//W3C//DTD SVG 20010904//EN"
 "http://www.w3.org/TR/2001/REC-SVG-20010904/DTD/svg10.dtd">
<svg version="1.0" xmlns="http://www.w3.org/2000/svg"
 width="512.000000pt" height="512.000000pt" viewBox="0 0 512.000000 512.000000"
 preserveAspectRatio="xMidYMid meet">
<metadata>
Created by potrace 1.11, written by Peter Selinger 2001-2013
</metadata>
<g transform="translate(0.000000,512.000000) scale(0.100000,-0.100000)"
fill="#000000" stroke="none">
<path d="M2009 4966 c-2 -2 -29 -6 -59 -10 -187 -21 -376 -89 -521 -186 -79
-54 -192 -166 -243 -243 -111 -168 -185 -394 -144 -435 35 -35 148 10 285 115
46 35 83 62 83 60 0 -2 -20 -35 -45 -73 -62 -93 -139 -254 -185 -383 -33 -93
-107 -371 -125 -466 -2 -16 -8 -43 -11 -60 -4 -16 -7 -36 -7 -43 0 -7 -59 -58
-130 -113 -288 -223 -553 -458 -607 -537 -12 -19 -31 -61 -41 -94 -44 -141 -6
-273 94 -324 101 -53 297 -23 504 77 45 21 83 39 85 39 2 0 5 -62 7 -137 2
-132 4 -164 16 -303 13 -162 47 -382 79 -515 1 -5 8 -36 16 -68 8 -34 18 -56
25 -54 6 3 53 34 104 71 52 36 97 66 101 66 9 0 -3 -61 -20 -105 -18 -48 -50
-84 -110 -125 -109 -74 -228 -214 -247 -290 -3 -14 -11 -28 -17 -32 -8 -5 -7
-8 2 -8 9 0 10 -5 3 -19 -6 -10 -7 -22 -3 -26 4 -4 -3 -4 -15 -1 -12 4 -24 2
-28 -4 -4 -6 -1 -11 6 -9 32 4 47 -2 54 -23 4 -13 6 -27 5 -33 -1 -5 2 -7 5
-3 4 4 22 -3 39 -15 17 -13 43 -29 59 -37 31 -16 36 -35 8 -37 -13 -1 -18 3
-15 12 3 7 -3 18 -14 24 -23 12 -36 -7 -25 -35 5 -14 3 -15 -15 -5 -29 15 -41
37 -16 27 14 -5 16 -4 7 5 -13 13 -37 3 -28 -12 4 -5 1 -9 -4 -9 -6 0 -11 6
-11 13 1 15 30 55 30 40 0 -16 28 -24 36 -10 4 7 4 9 -1 5 -4 -4 -14 0 -22 8
-8 8 -19 12 -24 9 -4 -3 -15 10 -23 30 -14 33 -36 48 -36 24 0 -5 5 -7 10 -4
6 3 10 1 10 -4 0 -6 -4 -11 -10 -11 -5 0 -10 -5 -10 -11 0 -8 5 -8 15 1 25 20
17 -3 -10 -28 l-24 -23 4 40 c4 40 -14 69 -34 57 -5 -4 -14 2 -20 11 -8 14
-11 15 -12 3 -1 -8 -1 -18 0 -22 0 -5 -4 -8 -11 -8 -6 0 -8 -3 -5 -6 4 -4 13
-1 22 6 10 8 15 9 15 1 0 -6 5 -11 11 -11 5 0 7 5 4 10 -3 6 -2 10 4 10 13 0
25 -19 17 -27 -3 -4 -27 -6 -52 -6 -36 1 -44 -2 -40 -14 4 -8 -6 -27 -23 -43
-21 -22 -25 -30 -14 -34 9 -4 11 -2 7 6 -5 7 -2 9 9 5 11 -4 14 -2 10 9 -4 10
0 12 11 8 9 -3 13 -10 10 -15 -3 -5 3 -6 13 -2 16 6 16 5 4 -10 -7 -9 -9 -17
-5 -17 5 0 15 9 22 20 16 26 28 26 28 0 0 -12 -5 -19 -13 -16 -8 3 -10 -1 -6
-11 4 -9 2 -14 -3 -10 -6 3 -11 -4 -11 -16 -2 -17 0 -19 7 -7 5 8 17 15 27 15
12 0 18 8 19 22 1 12 -3 20 -7 17 -5 -3 -9 0 -9 6 0 19 33 6 36 -13 4 -26 10
-30 25 -15 20 18 52 20 45 2 -3 -8 8 -27 24 -43 16 -15 28 -30 25 -33 -3 -2 2
-5 10 -5 12 0 10 6 -7 26 -13 14 -30 31 -38 38 -13 11 -13 12 2 13 9 0 24 -10
32 -22 16 -22 16 -22 31 -3 8 11 15 22 15 25 0 3 9 6 20 7 18 2 16 -2 -10 -29
-17 -17 -28 -33 -24 -37 4 -3 9 0 11 7 3 7 12 20 21 28 14 15 17 15 28 0 11
-15 12 -15 18 1 5 12 1 22 -13 32 -22 14 -30 38 -9 25 6 -4 23 -8 37 -9 18 -1
26 -7 27 -21 3 -47 3 -47 21 -33 15 12 16 12 11 -3 -4 -9 0 -24 7 -35 8 -10
15 -13 15 -6 0 6 -4 14 -8 17 -4 2 -8 17 -7 33 0 24 4 28 25 25 14 -1 35 -2
48 -2 12 0 22 -5 22 -10 0 -6 5 -10 11 -10 5 0 8 4 5 8 -3 5 1 9 9 9 8 0 12
-4 10 -7 -3 -4 23 -7 58 -5 34 1 72 -2 85 -6 15 -6 22 -5 22 3 0 9 3 9 12 0 7
-7 17 -12 22 -12 6 0 5 4 -3 9 -9 6 -5 9 15 9 l28 -1 -24 -20 c-18 -14 -20
-18 -7 -14 13 5 17 3 14 -5 -2 -7 -12 -12 -22 -10 -11 2 -14 -1 -10 -8 4 -6
13 -9 21 -6 7 3 18 -3 23 -12 6 -9 11 -12 11 -6 0 6 -3 14 -7 18 -11 11 -10
47 1 43 6 -2 10 -11 8 -20 -3 -18 13 -31 28 -22 8 5 7 11 -1 21 -7 8 -7 14 -1
14 20 0 32 -26 19 -40 -9 -11 -7 -10 7 0 18 14 19 13 13 -2 -3 -10 -2 -18 3
-18 18 0 10 26 -14 49 -13 12 -29 21 -36 19 -7 -2 -14 2 -17 9 -3 8 3 11 18 8
12 -3 28 0 36 6 10 9 13 8 13 -1 0 -10 3 -10 15 0 8 7 15 8 15 2 0 -5 -6 -15
-14 -21 -11 -9 -15 -9 -19 1 -2 7 -7 11 -10 8 -3 -3 11 -23 31 -45 32 -37 37
-31 5 6 -11 14 -11 18 1 28 12 11 21 9 45 -8 35 -26 47 -26 60 -4 5 10 13 14
17 10 4 -4 2 -13 -4 -19 -7 -7 -12 -17 -12 -23 0 -5 5 -2 11 7 5 9 16 15 24
12 8 -4 12 -10 9 -15 -3 -5 2 -6 12 -2 14 5 13 8 -7 18 -22 13 -22 13 19 34
23 12 42 25 42 29 0 8 32 14 88 15 17 1 32 4 32 7 0 14 45 7 56 -8 16 -21 18
-42 3 -42 -5 0 -7 5 -4 10 3 6 -1 13 -9 16 -9 3 -13 11 -10 16 4 6 -3 5 -15
-1 -12 -7 -26 -9 -31 -6 -6 4 -7 -1 -3 -12 5 -14 4 -16 -8 -8 -23 17 -71 10
-111 -14 -39 -24 -53 -40 -19 -22 14 8 22 7 32 -6 12 -14 11 -15 -10 -8 -21 6
-22 5 -10 -8 8 -8 19 -12 24 -9 6 4 19 7 30 8 11 1 27 4 35 8 12 5 15 -1 15
-26 0 -18 -4 -39 -9 -47 -6 -9 -5 -12 1 -8 6 4 13 0 17 -8 3 -8 -3 -19 -12
-24 -9 -6 -12 -10 -7 -10 13 0 45 24 45 33 0 4 -4 5 -9 2 -5 -3 -12 1 -15 10
-5 12 -2 15 9 10 9 -3 13 -2 10 4 -8 13 16 44 36 48 9 1 16 -4 16 -10 0 -7 2
-19 4 -27 2 -7 -2 -16 -9 -18 -7 -3 -12 -1 -11 4 3 19 -2 34 -10 29 -5 -3 -9
-16 -8 -29 0 -21 4 -23 41 -22 59 4 58 3 51 25 -4 12 -2 20 5 20 6 0 8 -4 5
-10 -3 -5 0 -10 8 -10 8 0 21 -8 30 -18 19 -20 23 -37 7 -27 -5 3 -10 2 -10
-3 0 -5 12 -14 27 -21 22 -10 24 -14 12 -22 -11 -8 -10 -9 5 -7 10 2 21 -3 23
-10 3 -8 -1 -10 -14 -6 -14 5 -13 3 4 -10 12 -9 28 -15 35 -14 7 2 12 -3 11
-10 -2 -6 2 -12 7 -12 14 0 13 13 -2 28 -9 9 -9 12 -1 12 7 0 15 -4 18 -10 3
-5 10 -10 16 -10 5 0 -1 10 -12 21 -20 20 -23 20 -31 5 -13 -23 -31 -21 -19 3
7 13 6 23 -4 37 -15 18 -15 18 -9 -1 5 -19 5 -19 -9 -2 -8 9 -19 17 -25 17 -6
0 -9 7 -5 16 4 12 8 13 14 3 4 -7 16 -14 25 -15 10 -2 24 -10 30 -18 13 -19
28 -21 19 -3 -4 6 1 3 9 -7 9 -11 16 -24 16 -29 0 -4 10 -5 22 -1 20 6 21 5 9
-10 -7 -9 -10 -16 -5 -16 5 -1 -2 -7 -16 -15 -29 -16 -19 -20 11 -4 11 5 17
14 14 19 -3 5 -1 12 5 15 8 5 8 11 1 19 -8 9 -7 13 4 13 8 0 12 -4 9 -9 -3 -5
6 -6 20 -2 26 6 31 -1 27 -33 -1 -7 3 -13 8 -13 5 0 8 9 6 21 -3 13 0 19 8 16
7 -2 12 -9 12 -17 0 -7 9 -19 21 -26 18 -13 23 -12 39 6 17 18 17 20 2 14 -11
-4 -17 -1 -17 9 0 10 7 13 20 10 21 -6 27 -28 10 -38 -5 -3 -10 -10 -10 -16 0
-5 8 -1 18 9 10 9 17 22 14 29 -2 8 11 11 41 10 41 -1 44 -3 44 -29 0 -18 -7
-30 -19 -34 -10 -3 -18 -10 -18 -15 0 -6 -5 -7 -12 -3 -7 4 -8 3 -4 -5 5 -8
15 -5 34 10 17 13 28 16 30 9 3 -7 10 -3 19 9 8 12 19 19 24 16 5 -4 9 -1 9 5
0 7 -7 9 -16 6 -11 -4 -15 -2 -11 8 4 10 1 13 -9 9 -7 -3 -14 0 -14 5 0 6 15
10 34 9 30 -2 34 -5 31 -27 -2 -14 -4 -28 -4 -32 -1 -4 -9 -5 -18 -2 -15 5
-16 4 -3 -5 18 -13 42 12 33 35 -3 8 0 14 6 14 6 0 11 -5 11 -12 0 -6 3 -8 6
-5 4 4 1 13 -6 22 -10 12 -10 15 4 15 9 0 16 -4 16 -10 0 -5 5 -10 11 -10 5 0
8 4 5 8 -3 5 1 9 9 9 9 0 12 -9 10 -26 -2 -14 -4 -29 -4 -33 -1 -4 -9 -5 -18
-2 -15 5 -16 4 -3 -5 19 -13 42 13 32 37 -5 15 -4 15 11 3 12 -9 14 -17 8 -25
-6 -6 -14 -23 -20 -38 -8 -21 -7 -26 4 -24 8 1 18 6 22 11 4 4 2 5 -4 1 -8 -4
-13 -2 -13 6 0 20 30 59 40 53 14 -9 23 16 11 28 -9 9 -11 8 -6 -4 4 -10 0
-16 -10 -16 -9 0 -14 6 -11 13 3 8 0 11 -10 7 -7 -3 -14 0 -14 5 0 7 25 10 65
9 36 -1 65 0 65 3 0 3 8 6 18 7 10 1 19 -5 19 -13 0 -8 -6 -13 -13 -10 -8 3
-16 1 -20 -5 -3 -6 -10 -6 -17 -1 -20 16 -43 10 -45 -12 0 -11 -6 -22 -12 -24
-5 -2 -10 -8 -10 -14 0 -7 5 -6 14 1 12 10 17 9 24 -6 5 -10 7 -25 5 -33 -4
-13 -3 -13 6 0 7 10 5 22 -7 42 -22 37 -5 58 29 34 13 -9 19 -16 14 -16 -5 0
0 -6 10 -14 11 -8 24 -12 29 -8 5 3 6 -3 2 -14 -6 -15 -5 -16 5 -7 10 10 9 15
-1 27 -7 9 -16 14 -20 11 -9 -5 -23 25 -16 33 3 2 19 -9 36 -26 16 -17 30 -27
30 -22 0 5 -4 12 -10 15 -16 10 -12 21 9 22 12 1 18 -5 17 -15 0 -9 5 -16 12
-15 6 2 12 -2 12 -7 0 -6 5 -10 11 -10 8 0 7 5 -1 15 -10 13 -10 19 2 33 24
27 30 42 19 42 -6 0 -11 -7 -11 -15 0 -8 -5 -15 -12 -15 -6 0 -8 3 -5 7 4 3 3
11 -3 17 -9 12 26 20 75 17 98 -4 117 -7 125 -21 5 -8 17 -16 27 -16 10 -1 25
-4 33 -6 8 -3 11 -3 7 0 -4 2 -3 10 4 18 7 8 9 17 6 21 -4 3 -2 14 3 23 7 14
6 17 -8 16 -9 0 -20 -6 -25 -13 -4 -7 -15 -9 -24 -6 -13 5 -15 2 -10 -11 5
-12 3 -16 -5 -13 -7 2 -12 10 -10 16 1 7 -2 10 -8 6 -5 -3 -10 -1 -10 4 0 6 9
12 20 12 19 1 31 4 48 9 4 1 12 3 17 4 12 3 39 13 80 30 17 7 33 14 37 15 15
4 77 63 112 106 23 27 26 29 41 14 15 -14 14 -18 -4 -40 -11 -13 -20 -19 -21
-14 0 6 5 16 12 23 9 9 9 15 -1 25 -10 10 -11 8 -6 -8 5 -14 4 -16 -3 -7 -8
11 -10 11 -15 -1 -3 -7 -1 -20 3 -27 5 -8 4 -22 -2 -34 -8 -15 -7 -22 8 -33
10 -7 12 -13 6 -13 -7 0 -12 -5 -12 -11 0 -5 4 -8 9 -5 5 3 15 -2 22 -11 12
-14 11 -15 -9 -9 -14 5 -22 3 -22 -4 0 -6 5 -8 10 -5 6 3 10 1 10 -4 0 -6 -5
-11 -12 -11 -6 0 -9 -3 -5 -6 3 -4 18 3 33 15 20 16 31 18 45 11 15 -8 17 -7
13 4 -3 8 -16 13 -30 11 -13 -1 -29 3 -34 10 -8 10 -3 12 25 11 28 -2 40 -10
54 -32 10 -16 16 -34 14 -40 -2 -6 4 -14 13 -18 14 -5 15 -4 4 9 -7 8 -10 15
-6 15 4 0 0 11 -9 24 -14 21 -14 24 2 37 15 12 16 12 11 -3 -4 -9 0 -24 7 -35
8 -10 15 -13 15 -7 0 6 -3 14 -7 18 -4 4 -8 15 -8 24 0 9 -6 16 -12 15 -7 -2
-13 2 -13 7 0 13 23 13 37 -1 17 -17 56 11 41 29 -9 10 -7 17 7 30 17 16 17
16 11 -1 -3 -10 -1 -27 4 -37 8 -15 6 -20 -10 -25 -11 -3 -20 -11 -20 -16 0
-6 10 -3 21 5 12 8 27 12 35 9 8 -3 17 2 20 11 3 9 10 13 16 10 5 -3 7 -13 3
-23 -5 -12 -4 -13 6 -4 10 10 9 16 -1 28 -13 16 -15 15 -27 -1 -12 -17 -14
-17 -28 2 -17 23 -19 34 -4 34 8 0 8 5 -1 15 -7 8 -16 13 -20 10 -11 -7 -33
22 -26 34 4 5 1 13 -5 17 -7 4 -9 3 -5 -4 3 -6 2 -13 -4 -17 -5 -3 -10 3 -10
14 0 11 -5 23 -11 27 -22 13 3 -41 29 -62 l25 -21 -31 0 c-17 0 -29 4 -27 8 3
4 -2 22 -10 40 l-15 34 2 -32 c1 -17 6 -29 10 -27 4 3 8 0 8 -6 0 -6 -8 -10
-17 -8 -10 2 -18 12 -18 23 0 14 -6 19 -19 17 -17 -3 -18 -2 -7 12 7 9 17 13
22 10 5 -3 9 0 9 5 0 14 -13 14 -27 0 -14 -14 -33 -3 -33 19 0 14 2 15 10 2 5
-8 11 -12 14 -10 2 3 -2 13 -9 23 -13 17 -14 17 -20 -3 -4 -12 -2 -27 4 -33 6
-6 11 -16 11 -22 -1 -5 -9 0 -19 12 -10 12 -22 19 -27 15 -5 -4 -3 0 4 9 6 9
9 19 5 22 -3 4 -2 7 3 7 5 0 11 14 12 32 2 17 8 38 15 47 9 12 9 13 0 7 -7 -4
-13 -2 -13 3 0 6 6 11 13 11 7 0 8 3 2 8 -6 4 -11 27 -11 52 -1 43 -11 166
-19 240 -3 20 -7 80 -10 133 -4 54 -8 106 -10 117 -3 13 12 31 50 59 30 23 62
41 71 41 9 0 73 -29 141 -65 l125 -66 -6 68 c-4 38 -9 79 -11 93 -4 28 -13 94
-21 160 -3 25 -7 56 -9 70 -2 14 -7 45 -10 70 -3 25 -10 72 -15 105 -5 33 -12
83 -15 110 -4 28 -9 63 -11 78 -3 21 -1 27 8 22 7 -4 6 -1 -2 7 -8 7 -16 18
-17 25 -2 7 53 -26 122 -72 201 -135 345 -196 478 -201 94 -4 145 13 199 64
55 52 78 128 74 245 -5 176 -51 251 -330 531 -288 290 -485 463 -641 565 -44
29 -83 58 -86 64 -6 11 -11 39 -24 127 -2 14 -20 120 -39 235 -31 181 -46 253
-73 337 -4 12 15 4 60 -26 36 -24 86 -52 112 -62 42 -16 50 -16 73 -3 15 8 27
25 29 41 11 80 -111 390 -221 563 -162 254 -383 425 -623 481 -112 26 -251 32
-341 15 -49 -10 -87 -8 -152 6 -30 6 -394 15 -401 9z m548 -3630 c8 -8 -57
-196 -81 -236 -27 -43 -112 -130 -148 -151 -16 -8 -17 -7 -9 14 5 13 8 83 8
156 l-2 133 80 58 c80 58 80 58 114 44 19 -8 36 -16 38 -18z m-1712 -688 c1
-29 -9 -36 -20 -18 -4 6 -2 16 3 23 8 9 4 12 -12 13 -13 1 -27 -6 -33 -15 -9
-14 -8 -18 3 -18 7 0 11 4 8 8 -2 4 0 10 6 14 11 7 14 -27 4 -38 -3 -3 -17 -1
-30 5 -18 8 -21 14 -13 24 6 7 8 17 5 22 -3 6 13 9 37 8 39 -1 42 -3 42 -28z
m70 -8 c0 -7 -6 -15 -13 -18 -8 -2 -10 2 -5 14 6 16 5 17 -9 4 -14 -13 -14
-16 0 -26 16 -11 9 -34 -10 -34 -6 0 -5 7 3 17 8 10 9 14 2 10 -20 -12 -26 13
-7 34 19 21 39 21 39 -1z m1172 -42 c-2 -10 -6 -21 -10 -24 -4 -4 -1 -14 6
-22 10 -13 9 -15 -5 -10 -10 4 -19 1 -22 -9 -5 -12 -9 -13 -20 -3 -10 8 -20 8
-33 1 -11 -5 -25 -6 -33 -1 -8 5 -25 3 -42 -6 -21 -11 -33 -12 -48 -4 -24 13
-25 23 -5 40 8 7 15 10 15 7 0 -3 3 -13 6 -21 5 -12 2 -15 -12 -10 -15 5 -16
4 -4 -4 9 -7 19 -7 26 -2 6 6 13 9 15 7 2 -1 -2 3 -9 10 -8 7 -9 13 -3 17 5 4
12 2 16 -4 9 -15 28 -12 19 3 -4 6 2 4 13 -6 20 -17 53 -14 53 5 0 6 -7 5 -15
-2 -9 -7 -18 -11 -20 -8 -3 3 1 11 9 17 16 13 45 4 45 -14 -1 -18 20 -16 30 3
8 15 7 21 -4 26 -25 9 -18 36 10 34 17 -2 23 -8 22 -20z m-1080 -3 c-4 -8 -2
-17 4 -20 12 -8 1 -27 -13 -23 -18 6 -19 58 -1 58 9 0 13 -6 10 -15z m163 -15
c0 -5 -5 -10 -11 -10 -5 0 -7 -4 -4 -10 3 -5 1 -10 -4 -10 -13 0 -13 3 -5 24
7 18 24 22 24 6z m664 -1 c9 8 16 9 16 4 0 -14 -69 -45 -82 -37 -6 4 -17 -1
-24 -11 -14 -18 -44 -14 -44 6 0 8 4 9 13 0 11 -8 17 -5 27 13 8 15 19 23 31
21 10 -2 21 1 25 7 4 7 9 6 14 -3 7 -10 11 -10 24 0z m-994 -9 c0 -5 -5 -10
-11 -10 -5 0 -7 5 -4 10 3 6 8 10 11 10 2 0 4 -4 4 -10z m250 -10 c0 -5 -2
-10 -4 -10 -3 0 -8 5 -11 10 -3 6 -1 10 4 10 6 0 11 -4 11 -10z m644 -2 c-3
-5 -12 -7 -19 -4 -7 2 -17 0 -22 -5 -6 -6 -14 -5 -21 3 -8 10 -2 13 29 14 22
1 36 -2 33 -8z m1842 -25 c-6 -15 -4 -15 14 2 11 10 20 13 20 8 0 -17 -28 -35
-42 -27 -10 5 -10 4 -1 -6 9 -10 15 -10 26 -2 8 7 17 9 20 5 9 -9 9 -23 0 -22
-23 4 -31 -3 -29 -25 1 -20 4 -22 22 -14 12 6 21 17 20 26 -1 11 9 16 31 18
24 1 33 -3 37 -20 6 -24 -7 -42 -23 -32 -15 10 -14 26 2 22 6 -1 9 -1 4 1 -4
3 -4 9 -1 15 4 6 -7 0 -25 -13 -17 -13 -29 -29 -27 -36 6 -14 -6 -18 -18 -6
-4 4 -17 8 -29 8 -32 1 -67 15 -67 26 0 6 5 7 11 4 6 -4 9 -1 7 6 -1 8 8 29
22 47 26 35 36 41 26 15z m-1573 -11 c12 6 23 6 32 -2 9 -7 15 -8 20 0 3 5 11
10 17 10 7 0 7 -4 -1 -13 -10 -12 -10 -24 1 -67 2 -9 -5 -15 -20 -16 -18 -1
-20 1 -11 12 9 11 8 18 -2 31 -10 11 -10 14 -1 9 6 -4 12 -3 12 1 0 5 -9 14
-20 21 -11 7 -20 8 -20 3 0 -5 -11 -8 -25 -6 -19 2 -23 -1 -15 -10 5 -6 7 -15
3 -18 -13 -14 -19 -6 -19 22 0 24 3 28 15 21 9 -5 23 -4 34 2z m-428 -12 c3
-5 1 -10 -4 -10 -6 0 -11 5 -11 10 0 6 2 10 4 10 3 0 8 -4 11 -10z m509 -30
c-6 -6 -10 -2 -11 12 -2 16 1 18 10 9 7 -7 8 -14 1 -21z m1526 -6 c0 -8 -5
-12 -10 -9 -6 4 -8 11 -5 16 9 14 15 11 15 -7z m-1320 -120 c0 -8 -4 -12 -10
-9 -5 3 -10 10 -10 16 0 5 5 9 10 9 6 0 10 -7 10 -16z m894 8 c2 -4 -4 -8 -15
-8 -10 0 -19 4 -19 8 0 4 6 8 14 8 8 0 17 -4 20 -8z m91 -9 c-2 -10 -4 -21 -4
-24 -1 -4 -12 -6 -26 -6 -19 0 -23 3 -15 12 5 6 9 14 7 16 -1 2 4 -3 12 -11
12 -13 13 -13 8 2 -6 16 0 28 14 28 4 0 6 -8 4 -17z m-270 -51 c-1 -12 -6 -26
-10 -30 -5 -4 -5 1 -2 10 3 10 2 20 -4 23 -5 4 -7 12 -3 18 3 7 0 5 -8 -3 -19
-22 -47 -24 -44 -3 2 9 9 19 16 21 8 3 10 0 5 -9 -5 -8 -1 -7 10 3 22 20 44 4
40 -30z m-565 19 c14 -28 13 -33 -8 -20 -10 7 -19 18 -19 25 0 20 15 17 27 -5z
m174 -43 c-4 -6 -10 -5 -15 3 -14 22 -10 33 6 19 8 -7 12 -17 9 -22z"/>
<path d="M2050 606 c0 -2 7 -9 15 -16 13 -11 14 -10 9 4 -5 14 -24 23 -24 12z"/>
<path d="M3549 503 c-4 -40 -2 -53 6 -53 13 0 15 34 4 52 -7 10 -9 10 -10 1z"/>
<path d="M759 788 c-5 -18 -6 -38 -1 -34 7 8 12 36 6 36 -2 0 -4 -1 -5 -2z"/>
<path d="M817 756 c-4 -10 1 -12 14 -9 23 6 24 9 5 16 -8 3 -17 0 -19 -7z"/>
<path d="M670 756 c0 -2 8 -10 18 -17 15 -13 16 -12 3 4 -13 16 -21 21 -21 13z"/>
<path d="M720 735 c-7 -9 -8 -15 -2 -15 5 0 12 7 16 15 3 8 4 15 2 15 -2 0 -9
-7 -16 -15z"/>
<path d="M747 713 c3 -7 6 -13 8 -13 2 0 5 6 8 13 3 8 -1 14 -8 14 -7 0 -11
-6 -8 -14z"/>
<path d="M697 709 c7 -7 15 -10 18 -7 3 3 -2 9 -12 12 -14 6 -15 5 -6 -5z"/>
<path d="M590 701 c0 -5 8 -15 18 -22 15 -12 16 -12 5 2 -7 9 -10 19 -6 22 3
4 1 7 -5 7 -7 0 -12 -4 -12 -9z"/>
<path d="M650 701 c8 -6 11 -11 6 -11 -5 0 -2 -7 5 -16 11 -14 10 -18 -6 -30
-23 -17 -36 -18 -32 -2 1 7 -9 13 -23 14 -22 2 -22 2 -2 -3 12 -2 20 -8 17
-13 -12 -20 19 -21 46 -1 16 12 29 17 29 11 0 -5 -9 -15 -19 -22 -14 -9 -17
-16 -10 -24 7 -8 6 -14 -1 -19 -5 -3 -10 -1 -10 5 0 6 -4 8 -10 5 -15 -9 -12
-22 5 -22 8 0 23 9 32 20 10 12 12 17 4 12 -9 -5 -12 -3 -9 6 3 8 12 13 20 11
22 -3 43 26 44 61 2 31 2 31 -11 8 -7 -13 -14 -20 -17 -15 -3 5 -3 3 -2 -3 2
-7 0 -13 -4 -13 -14 0 -37 20 -37 31 0 7 -7 14 -15 16 -13 4 -13 3 0 -6z m70
-56 c-7 -8 -17 -15 -23 -15 -5 0 -2 9 8 20 21 23 35 19 15 -5z"/>
<path d="M3615 680 c3 -5 8 -10 11 -10 2 0 4 5 4 10 0 6 -5 10 -11 10 -5 0 -7
-4 -4 -10z"/>
<path d="M630 671 c0 -5 5 -13 10 -16 6 -3 10 -2 10 4 0 5 -4 13 -10 16 -5 3
-10 2 -10 -4z"/>
<path d="M550 646 c0 -2 7 -7 16 -10 8 -3 12 -2 9 4 -6 10 -25 14 -25 6z"/>
<path d="M3600 631 c0 -7 -5 -9 -12 -5 -7 5 -8 3 -3 -5 5 -9 10 -10 18 -2 6 6
8 14 4 18 -4 3 -7 1 -7 -6z"/>
<path d="M3699 628 c-7 -25 -7 -48 1 -53 6 -4 7 1 3 11 -5 13 -3 15 8 9 11 -7
12 -6 2 7 -7 8 -10 18 -6 21 3 4 3 7 0 7 -4 0 -7 -1 -8 -2z"/>
<path d="M601 603 c7 -10 14 -19 15 -21 1 -2 4 4 8 13 3 9 2 13 -4 10 -6 -3
-10 -1 -10 4 0 6 -5 11 -11 11 -8 0 -7 -6 2 -17z"/>
<path d="M3651 611 c-8 -5 -21 -7 -30 -4 -13 4 -14 3 -2 -5 14 -10 51 0 51 13
0 7 -3 6 -19 -4z"/>
<path d="M704 575 c11 -8 22 -12 25 -9 6 6 -19 24 -34 24 -5 -1 -1 -7 9 -15z"/>
<path d="M740 579 c0 -5 5 -7 10 -4 6 3 10 8 10 11 0 2 -4 4 -10 4 -5 0 -10
-5 -10 -11z"/>
<path d="M1107 573 c3 -7 6 -13 8 -13 2 0 5 6 8 13 3 8 -1 14 -8 14 -7 0 -11
-6 -8 -14z"/>
<path d="M3725 580 c-4 -6 -1 -18 7 -27 11 -15 11 -16 -4 -10 -10 3 -18 2 -18
-3 0 -13 27 -13 35 -1 3 5 0 13 -6 16 -5 4 -8 13 -5 21 6 16 0 19 -9 4z"/>
<path d="M760 560 c0 -5 5 -10 10 -10 6 0 10 5 10 10 0 6 -4 10 -10 10 -5 0
-10 -4 -10 -10z"/>
<path d="M1190 560 c0 -6 4 -9 9 -6 5 3 25 -5 45 -19 20 -13 36 -21 36 -18 0
4 7 -2 15 -13 8 -10 15 -14 15 -9 0 6 -5 16 -12 23 -9 9 -9 12 -1 12 7 0 14
-4 18 -10 3 -5 12 -7 21 -3 19 7 13 13 -19 19 -14 2 -28 0 -32 -6 -4 -6 -11
-5 -19 3 -8 6 -12 14 -11 17 2 3 -4 6 -13 6 -9 1 -25 4 -34 9 -11 4 -18 3 -18
-5z"/>
<path d="M3754 562 c4 -3 14 -7 22 -8 9 -1 13 0 10 4 -4 3 -14 7 -22 8 -9 1
-13 0 -10 -4z"/>
<path d="M906 543 c12 -10 24 -25 26 -32 4 -13 5 -13 10 0 4 11 -4 22 -25 33
-31 17 -31 17 -11 -1z"/>
<path d="M615 540 c3 -5 8 -10 11 -10 2 0 4 5 4 10 0 6 -5 10 -11 10 -5 0 -7
-4 -4 -10z"/>
<path d="M668 543 c7 -3 16 -2 19 1 4 3 -2 6 -13 5 -11 0 -14 -3 -6 -6z"/>
<path d="M862 536 c10 -7 17 -15 15 -17 -1 -2 2 -1 8 4 6 5 4 11 -5 17 -23 15
-37 11 -18 -4z"/>
<path d="M1106 533 c-3 -10 -6 -22 -6 -28 0 -14 43 -12 46 3 1 7 0 8 -2 3 -6
-12 -34 -3 -34 11 0 5 5 6 10 3 6 -3 10 -2 10 4 0 18 -19 21 -24 4z"/>
<path d="M1399 533 c14 -27 14 -36 1 -28 -5 3 -10 1 -10 -5 0 -14 22 -8 27 6
2 5 -4 19 -12 29 -16 19 -16 19 -6 -2z"/>
<path d="M1420 547 c0 -4 10 -16 23 -28 18 -18 18 -21 4 -16 -10 4 -16 3 -12
-2 3 -5 -1 -11 -7 -14 -7 -2 -10 -7 -7 -10 3 -4 21 7 40 23 19 16 28 29 22 30
-7 0 -13 -6 -13 -12 0 -8 -3 -9 -8 -3 -11 15 -42 38 -42 32z"/>
<path d="M806 523 c-6 -14 -5 -15 5 -6 7 7 10 15 7 18 -3 3 -9 -2 -12 -12z"/>
<path d="M1062 520 c7 -10 14 -18 15 -16 6 6 -9 36 -18 36 -5 0 -4 -9 3 -20z"/>
<path d="M1190 530 c0 -5 7 -6 17 -3 10 4 14 2 10 -4 -6 -10 12 -23 31 -22 4
0 10 -10 14 -23 6 -22 6 -22 7 -2 1 12 -6 27 -14 34 -8 7 -15 9 -15 4 0 -5 -5
-1 -11 9 -11 18 -39 24 -39 7z"/>
<path d="M754 514 c1 -7 6 -17 10 -21 4 -4 6 -1 4 7 -2 9 3 14 12 12 8 -2 11
0 7 4 -13 14 -35 12 -33 -2z"/>
<path d="M1370 521 c0 -5 -7 -11 -15 -13 -12 -2 -11 -6 6 -16 12 -8 18 -9 14
-2 -4 6 -1 17 5 25 9 11 9 15 1 15 -6 0 -11 -4 -11 -9z"/>
<path d="M1655 520 c3 -5 13 -10 21 -10 8 0 14 -4 14 -10 0 -5 6 -10 13 -10 6
1 1 10 -12 20 -25 21 -46 27 -36 10z"/>
<path d="M3750 520 c0 -6 7 -10 15 -10 8 0 15 2 15 4 0 2 -7 6 -15 10 -8 3
-15 1 -15 -4z"/>
<path d="M1032 504 c-7 -8 -8 -14 -3 -14 10 0 25 19 20 25 -2 1 -10 -3 -17
-11z"/>
<path d="M830 496 c7 -7 13 -7 20 0 6 6 3 10 -10 10 -13 0 -16 -4 -10 -10z"/>
<path d="M950 500 c0 -5 5 -10 11 -10 5 0 7 5 4 10 -3 6 -8 10 -11 10 -2 0 -4
-4 -4 -10z"/>
<path d="M3485 489 c-6 -17 -9 -19 -16 -8 -5 8 -9 9 -9 3 0 -7 -10 -14 -22
-17 -21 -6 -21 -7 -3 -27 10 -11 13 -20 7 -20 -6 0 -14 5 -18 11 -5 8 -10 6
-16 -5 -5 -9 -13 -14 -18 -11 -5 3 -22 -1 -38 -9 -16 -8 -32 -13 -34 -11 -3 3
-5 -1 -6 -7 0 -7 -3 -26 -5 -43 -6 -38 2 -63 14 -43 5 7 6 20 4 29 -4 10 1 15
13 14 27 -2 43 -15 40 -32 -2 -9 3 -17 10 -19 7 -1 8 0 3 2 -12 6 -3 34 11 34
5 0 6 -4 3 -10 -3 -5 -1 -10 5 -10 7 0 9 7 6 16 -3 9 -6 18 -6 21 0 3 -7 0
-15 -7 -16 -14 -20 -3 -6 19 7 11 13 9 29 -7 12 -12 22 -16 24 -10 6 16 49 17
55 1 3 -7 10 -10 15 -7 6 4 5 10 -3 15 -7 4 -14 28 -14 53 -1 26 -5 49 -8 52
-3 4 -2 15 4 26 6 11 8 22 6 25 -3 2 -8 -5 -12 -18z m0 -85 c0 -27 -5 -39 -15
-40 -8 -1 -18 -2 -22 -3 -12 -2 -23 3 -21 10 1 3 -10 5 -25 3 -14 -1 -32 2
-38 7 -8 6 -16 3 -25 -8 -12 -16 -12 -17 2 -5 13 10 19 10 28 -2 9 -11 5 -13
-23 -13 -41 1 -38 20 6 43 22 12 33 13 43 4 8 -7 19 -9 24 -6 5 4 14 -2 20
-11 7 -12 10 -13 11 -4 0 11 3 11 17 0 15 -13 15 -12 2 8 -8 14 -16 18 -20 12
-5 -8 -8 -8 -13 -1 -4 6 -14 8 -23 5 -11 -4 -14 -3 -9 6 4 6 15 9 25 6 9 -3
26 2 37 10 13 10 14 13 3 10 -9 -3 -22 1 -29 10 -15 18 1 20 19 3 10 -11 11
-9 6 7 -6 18 -5 18 7 4 7 -9 13 -34 13 -55z"/>
<path d="M923 482 c10 -10 14 -22 10 -27 -5 -4 -2 -5 5 -1 11 6 10 12 -4 27
-9 10 -19 19 -22 19 -3 0 2 -8 11 -18z"/>
<path d="M1201 494 c-1 -6 5 -17 12 -23 10 -8 14 -7 14 4 0 8 -4 12 -8 9 -4
-2 -10 2 -12 8 -4 8 -6 9 -6 2z"/>
<path d="M1305 478 l-20 -21 23 12 c12 6 22 16 22 21 0 13 -2 12 -25 -12z"/>
<path d="M1773 474 c0 -17 2 -22 7 -13 5 6 6 18 3 26 -8 19 -10 16 -10 -13z"/>
<path d="M1830 485 c0 -8 4 -15 10 -15 5 0 7 7 4 15 -4 8 -8 15 -10 15 -2 0
-4 -7 -4 -15z"/>
<path d="M1906 485 c-9 -9 -16 -12 -16 -6 0 6 -5 11 -12 11 -6 0 -4 -7 5 -18
10 -10 14 -21 11 -25 -3 -3 3 -3 15 0 12 3 21 9 21 14 0 5 -8 6 -17 3 -16 -5
-15 -3 1 10 11 9 17 18 14 21 -3 3 -13 -1 -22 -10z"/>
<path d="M3760 485 c-7 -9 -8 -15 -2 -15 5 0 12 7 16 15 3 8 4 15 2 15 -2 0
-9 -7 -16 -15z"/>
<path d="M1146 482 c-3 -5 1 -9 9 -9 8 0 15 4 15 9 0 4 -4 8 -9 8 -6 0 -12 -4
-15 -8z"/>
<path d="M1336 475 c-9 -26 -7 -32 5 -12 6 10 9 21 6 23 -2 3 -7 -2 -11 -11z"/>
<path d="M1460 480 c-12 -7 -10 -9 8 -7 12 0 22 5 22 9 0 11 -12 10 -30 -2z"/>
<path d="M1725 480 c3 -5 11 -10 16 -10 6 0 7 5 4 10 -3 6 -11 10 -16 10 -6 0
-7 -4 -4 -10z"/>
<path d="M1396 467 c3 -10 9 -15 12 -12 3 3 0 11 -7 18 -10 9 -11 8 -5 -6z"/>
<path d="M1180 466 c0 -2 8 -10 18 -17 15 -13 16 -12 3 4 -13 16 -21 21 -21
13z"/>
<path d="M1356 462 c-3 -4 4 -9 15 -9 23 -2 25 3 4 10 -8 4 -16 3 -19 -1z"/>
<path d="M1556 461 c-3 -5 2 -15 12 -22 15 -12 16 -12 5 2 -7 9 -10 19 -6 22
3 4 4 7 0 7 -3 0 -8 -4 -11 -9z"/>
<path d="M1647 459 c7 -7 15 -10 18 -7 3 3 -2 9 -12 12 -14 6 -15 5 -6 -5z"/>
<path d="M1855 459 c-4 -6 -5 -12 -2 -15 2 -3 7 2 10 11 7 17 1 20 -8 4z"/>
<path d="M1093 445 c0 -8 4 -12 9 -9 5 3 6 10 3 15 -9 13 -12 11 -12 -6z"/>
<path d="M1590 446 c0 -2 7 -7 16 -10 8 -3 12 -2 9 4 -6 10 -25 14 -25 6z"/>
<path d="M3830 439 c0 -5 5 -7 10 -4 6 3 10 8 10 11 0 2 -4 4 -10 4 -5 0 -10
-5 -10 -11z"/>
<path d="M2100 436 c0 -2 7 -7 16 -10 8 -3 12 -2 9 4 -6 10 -25 14 -25 6z"/>
<path d="M1805 420 c-3 -6 1 -7 9 -4 18 7 21 14 7 14 -6 0 -13 -4 -16 -10z"/>
<path d="M1882 418 c-7 -7 -12 -17 -12 -22 0 -6 5 -3 11 7 6 9 15 14 21 11 7
-4 8 -2 4 4 -9 15 -9 15 -24 0z"/>
<path d="M2082 411 c-8 -4 -27 -7 -43 -5 -16 2 -29 -1 -29 -7 0 -6 4 -8 9 -5
5 4 12 0 14 -6 4 -10 6 -10 6 0 1 6 6 12 12 12 5 0 8 -4 5 -9 -3 -5 1 -12 10
-15 8 -3 12 -10 9 -16 -3 -5 -1 -10 4 -10 6 0 11 4 11 9 0 5 11 9 25 9 24 0
36 -17 15 -19 -5 -1 -15 -2 -22 -3 -6 0 -13 -8 -15 -16 -4 -13 -3 -13 6 0 6 8
11 11 11 7 0 -4 9 -3 21 3 29 16 18 35 -21 35 -19 0 -35 6 -38 14 -3 8 0 11 7
7 6 -4 11 -2 11 3 0 6 5 11 11 11 5 0 7 -4 4 -10 -3 -5 -1 -10 5 -10 13 0 8
22 -6 27 -5 1 -15 -1 -22 -6z"/>
<path d="M3670 410 c0 -5 5 -10 10 -10 6 0 10 5 10 10 0 6 -4 10 -10 10 -5 0
-10 -4 -10 -10z"/>
<path d="M3776 407 c3 -10 9 -15 12 -12 3 3 0 11 -7 18 -10 9 -11 8 -5 -6z"/>
<path d="M1276 402 c-3 -5 1 -9 9 -9 8 0 12 4 9 9 -3 4 -7 8 -9 8 -2 0 -6 -4
-9 -8z"/>
<path d="M3715 400 c-4 -6 1 -7 11 -3 13 5 15 3 9 -7 -5 -9 -4 -11 4 -6 6 4 9
12 6 17 -8 12 -22 12 -30 -1z"/>
<path d="M1955 381 c-3 -5 0 -13 6 -17 8 -5 9 -3 4 6 -6 10 -4 12 9 7 10 -4
15 -3 11 3 -8 13 -22 13 -30 1z"/>
<path d="M3693 384 c4 -7 0 -14 -8 -18 -17 -6 -20 -26 -4 -26 5 0 7 5 3 12 -5
7 -2 9 8 5 17 -6 19 16 3 30 -4 4 -5 3 -2 -3z"/>
<path d="M3563 374 c-7 -3 -9 -12 -6 -20 4 -10 0 -12 -13 -7 -12 4 -15 3 -10
-5 10 -17 26 -15 33 6 4 9 11 20 17 24 12 9 -2 9 -21 2z"/>
<path d="M2026 361 c-4 -5 3 -7 14 -4 23 6 26 13 6 13 -8 0 -17 -4 -20 -9z"/>
<path d="M3595 359 c-11 -16 -1 -19 13 -3 7 8 8 14 3 14 -5 0 -13 -5 -16 -11z"/>
<path d="M3775 360 c-3 -5 -1 -10 4 -10 6 0 11 5 11 10 0 6 -2 10 -4 10 -3 0
-8 -4 -11 -10z"/>
<path d="M1975 351 c-3 -5 0 -13 6 -17 7 -4 9 -3 5 4 -3 6 2 13 11 15 16 4 16
5 1 6 -9 0 -19 -3 -23 -8z"/>
<path d="M1919 333 c-13 -17 -13 -17 6 -3 11 8 22 16 24 17 2 2 0 3 -6 3 -6 0
-17 -8 -24 -17z"/>
<path d="M2057 329 c4 -13 8 -18 11 -10 2 7 -1 18 -6 23 -8 8 -9 4 -5 -13z"/>
<path d="M3052 312 c-12 -19 -20 -37 -17 -40 3 -3 5 1 5 9 0 12 2 12 10 -1 6
-9 5 -17 -3 -22 -8 -5 -9 -8 -1 -8 6 0 18 8 25 17 8 9 9 14 3 10 -7 -4 -15 0
-18 9 -4 11 -1 14 13 9 12 -3 21 0 25 10 3 8 10 15 16 15 6 0 4 -12 -5 -29
-10 -20 -12 -32 -4 -36 6 -4 13 -4 16 -1 4 3 1 6 -5 6 -6 0 -9 7 -5 16 5 13 8
13 15 2 7 -10 9 -10 7 2 -2 26 1 40 9 40 10 0 9 -41 -1 -57 -12 -20 1 -15 23
7 16 16 17 20 5 20 -20 0 -19 17 2 28 13 8 9 10 -18 9 -37 0 -61 5 -69 14 -3
3 -15 -9 -28 -29z m48 13 c0 -2 -7 -8 -15 -15 -12 -10 -15 -10 -15 2 0 8 7 15
15 15 8 0 15 -1 15 -2z"/>
<path d="M2151 332 c-1 -8 -6 -10 -13 -6 -10 5 -10 4 -1 -6 15 -16 28 -8 20
12 -4 11 -6 11 -6 0z"/>
<path d="M2332 327 c-7 -8 -7 -18 -2 -27 5 -8 6 -18 3 -24 -4 -5 -1 -6 7 -1
10 6 12 4 7 -8 -9 -25 0 -21 14 6 6 12 8 19 4 15 -10 -9 -35 23 -28 35 3 5 9
3 14 -4 6 -10 9 -10 9 -2 0 18 -17 24 -28 10z"/>
<path d="M3450 320 c0 -11 2 -20 4 -20 2 0 6 9 9 20 3 11 1 20 -4 20 -5 0 -9
-9 -9 -20z"/>
<path d="M3480 331 c0 -6 4 -13 10 -16 6 -3 7 1 4 9 -7 18 -14 21 -14 7z"/>
<path d="M3180 311 c-12 -13 -12 -14 3 -8 11 4 20 0 27 -13 6 -11 16 -20 23
-19 9 0 9 2 -1 6 -6 2 -11 8 -9 11 2 4 -4 14 -13 23 -14 14 -18 14 -30 0z"/>
<path d="M3342 323 c1 -5 -4 -19 -11 -32 -10 -18 -10 -25 0 -35 9 -8 10 -8 5
1 -4 7 0 23 8 35 18 26 20 38 6 38 -5 0 -9 -3 -8 -7z"/>
<path d="M3510 308 c-12 -22 -12 -22 6 -6 10 10 15 20 12 24 -4 3 -12 -5 -18
-18z"/>
<path d="M3566 322 c-3 -5 1 -9 9 -9 8 0 15 4 15 9 0 4 -4 8 -9 8 -6 0 -12 -4
-15 -8z"/>
<path d="M2114 306 c1 -8 5 -18 8 -22 4 -3 5 1 4 10 -1 8 -5 18 -8 22 -4 3 -5
-1 -4 -10z"/>
<path d="M2536 298 c9 -9 12 -18 7 -20 -22 -13 -43 -16 -43 -8 0 5 8 11 18 13
15 4 15 5 0 6 -20 1 -34 -17 -22 -29 10 -10 74 18 74 32 0 5 -4 6 -10 3 -5 -3
-10 -2 -10 4 0 5 6 11 13 14 6 2 0 4 -15 3 -24 -1 -25 -3 -12 -18z"/>
<path d="M2025 300 c-3 -6 1 -7 9 -4 18 7 21 14 7 14 -6 0 -13 -4 -16 -10z"/>
<path d="M3430 301 c0 -6 4 -13 10 -16 6 -3 7 1 4 9 -7 18 -14 21 -14 7z"/>
<path d="M3470 300 c0 -5 5 -10 11 -10 5 0 7 5 4 10 -3 6 -8 10 -11 10 -2 0
-4 -4 -4 -10z"/>
<path d="M2710 290 c0 -5 5 -10 10 -10 6 0 10 5 10 10 0 6 -4 10 -10 10 -5 0
-10 -4 -10 -10z"/>
<path d="M3246 286 c5 -14 40 -14 53 0 3 4 -1 4 -9 2 -8 -3 -23 -1 -32 4 -13
6 -16 5 -12 -6z"/>
<path d="M2190 286 c0 -2 9 -6 20 -9 11 -3 18 -1 14 4 -5 9 -34 13 -34 5z"/>
<path d="M2395 280 c27 -12 43 -12 25 0 -8 5 -22 9 -30 9 -10 0 -8 -3 5 -9z"/>
<path d="M2855 280 c3 -5 11 -10 16 -10 6 0 7 5 4 10 -3 6 -11 10 -16 10 -6 0
-7 -4 -4 -10z"/>
<path d="M3190 285 c0 -5 5 -17 10 -25 5 -8 10 -10 10 -5 0 6 -5 17 -10 25 -5
8 -10 11 -10 5z"/>
<path d="M3356 282 c-3 -5 1 -9 9 -9 8 0 12 4 9 9 -3 4 -7 8 -9 8 -2 0 -6 -4
-9 -8z"/>
<path d="M3400 280 c-13 -8 -12 -10 3 -10 11 0 15 -4 11 -12 -4 -7 -3 -8 4 -4
6 4 9 13 5 21 -6 18 -4 17 -23 5z"/>
<path d="M2680 260 c-6 -11 -8 -20 -6 -20 3 0 10 9 16 20 6 11 8 20 6 20 -3 0
-10 -9 -16 -20z"/>
<path d="M2455 260 c6 -10 4 -12 -8 -7 -21 8 -22 3 -3 -12 10 -9 15 -8 19 3 4
9 1 18 -5 22 -7 5 -8 2 -3 -6z"/>
<path d="M3164 259 c-4 -7 -3 -9 4 -5 5 3 13 0 15 -6 4 -9 6 -10 6 -1 1 17
-16 25 -25 12z"/>
<path d="M2395 250 c-3 -5 -1 -10 4 -10 6 0 11 5 11 10 0 6 -2 10 -4 10 -3 0
-8 -4 -11 -10z"/>
<path d="M2875 250 c3 -5 8 -10 11 -10 2 0 4 5 4 10 0 6 -5 10 -11 10 -5 0 -7
-4 -4 -10z"/>
<path d="M3240 249 c0 -5 -4 -8 -9 -4 -5 3 -13 1 -16 -5 -4 -6 -1 -9 7 -8 7 2
12 -4 10 -12 -2 -8 0 -12 4 -7 9 9 16 47 9 47 -3 0 -5 -5 -5 -11z"/>
<path d="M2474 238 c-4 -7 -4 -10 1 -6 4 4 15 2 24 -5 14 -11 14 -10 2 6 -16
20 -18 21 -27 5z"/>
<path d="M2575 240 c-3 -5 -1 -10 4 -10 6 0 11 5 11 10 0 6 -2 10 -4 10 -3 0
-8 -4 -11 -10z"/>
<path d="M2625 240 c3 -5 11 -10 16 -10 6 0 7 5 4 10 -3 6 -11 10 -16 10 -6 0
-7 -4 -4 -10z"/>
<path d="M2696 241 c-4 -5 -1 -13 5 -17 8 -4 9 -3 5 4 -4 7 -3 12 3 12 5 0 12
-5 14 -10 3 -6 4 -5 3 2 -3 16 -23 22 -30 9z"/>
<path d="M2820 235 c-11 -13 -10 -14 4 -9 9 3 16 10 16 15 0 13 -6 11 -20 -6z"/>
<path d="M2985 240 c3 -5 8 -10 11 -10 2 0 4 5 4 10 0 6 -5 10 -11 10 -5 0 -7
-4 -4 -10z"/>
<path d="M3275 239 c-3 -4 2 -6 10 -5 21 3 28 13 10 13 -9 0 -18 -4 -20 -8z"/>
<path d="M3017 233 c-3 -5 6 -9 20 -10 19 -1 22 1 12 8 -17 11 -26 11 -32 2z"/>
<path d="M2600 215 c-7 -9 -11 -17 -9 -20 3 -2 10 5 17 15 14 24 10 26 -8 5z"/>
<path d="M2790 223 c0 -6 8 -17 18 -24 16 -13 16 -13 2 6 -8 11 -16 22 -17 24
-2 2 -3 0 -3 -6z"/>
<path d="M3078 223 c7 -3 16 -2 19 1 4 3 -2 6 -13 5 -11 0 -14 -3 -6 -6z"/>
<path d="M2933 207 c0 -8 6 -14 14 -14 9 0 10 4 2 14 -6 7 -12 13 -14 13 -1 0
-2 -6 -2 -13z"/>
<path d="M2855 181 c-3 -5 -2 -12 3 -15 5 -3 9 1 9 9 0 17 -3 19 -12 6z"/>
</g>
</svg>
